<svg width="95" height="95" viewBox="0 0 95 95" fill="none" xmlns="http://www.w3.org/2000/svg">
<path d="M80.4142 17.6696C74.2317 14.8883 67.7394 12.7229 60.9392 11.4872C60.0114 13.0328 59.0837 14.8883 58.4658 16.4339C51.0458 15.5062 43.9375 15.5062 36.8273 16.4339C35.8996 14.8883 34.9719 13.0328 34.046 11.4872C27.2457 12.7229 20.7534 14.5784 14.571 17.6696C2.20244 35.907 -1.19678 53.8364 0.348823 71.4578C8.69472 77.3322 16.4246 81.0413 24.4606 83.5146C26.3161 81.0413 28.1697 78.26 29.7153 75.1687C26.934 74.241 24.1508 72.6954 21.6774 71.1498C22.2953 70.5319 22.9132 70.2221 23.5329 69.6042C39.2988 76.7144 55.9925 76.7144 71.4485 69.6042C72.0664 70.2221 72.6843 70.5319 73.304 71.1498C70.8307 72.6954 68.0493 73.9311 65.2661 75.1687C66.8117 77.9501 68.3573 80.7333 70.5208 83.5146C78.2488 81.0413 86.2867 77.3322 94.6326 71.4578C96.4881 51.0551 91.2334 33.1257 80.4142 17.6696ZM31.8788 60.3287C27.242 60.3287 23.223 56.0018 23.223 50.7452C23.223 45.4887 26.9321 41.1617 31.8788 41.1617C36.5156 41.1617 40.5346 45.4887 40.5346 50.7452C40.2266 56.3098 36.5175 60.3287 31.8788 60.3287ZM63.1026 60.3287C58.4658 60.3287 54.4469 56.0018 54.4469 50.7452C54.4469 45.4887 58.156 41.1617 63.1026 41.1617C67.7394 41.1617 71.7584 45.4887 71.7584 50.7452C71.7584 56.3098 68.0475 60.3287 63.1026 60.3287Z" fill="#7DE2D1"/>
</svg>
