<svg width="95" height="95" viewBox="0 0 95 95" fill="none" xmlns="http://www.w3.org/2000/svg">
<path fill-rule="evenodd" clip-rule="evenodd" d="M47.5 1.1708C21.2637 1.1708 0 22.4345 0 48.6708C0 69.6487 13.6117 87.452 32.4818 93.7494C34.8494 94.191 35.7345 92.7085 35.7345 91.4598C35.7345 90.3149 35.6825 86.5929 35.6825 82.611C22.4604 85.474 19.6754 77.0149 19.6754 77.0149C17.5156 71.5228 14.391 70.0662 14.391 70.0662C10.0696 67.1253 14.7027 67.1772 14.7027 67.1772C19.4657 67.5149 21.991 72.0701 21.991 72.0701C26.2326 79.3324 33.1053 77.2227 35.8124 76.026C36.228 72.9552 37.4786 70.8733 38.8312 69.6747C28.2903 68.4779 17.1761 64.3903 17.1761 46.1975C17.1761 41.0188 19.0241 36.7754 22.0689 33.4448C21.5735 32.248 19.9611 27.4071 22.5365 20.874C22.5365 20.874 26.5184 19.5993 35.6027 25.7409C39.4027 24.7 43.4625 24.1526 47.4981 24.1526C51.5319 24.1786 55.5936 24.7 59.3936 25.7409C68.452 19.5993 72.4338 20.874 72.4338 20.874C75.011 27.4071 73.3968 32.248 72.9014 33.4448C75.9462 36.7772 77.7942 41.0188 77.7942 46.1975C77.7942 64.4423 66.68 68.4501 56.1131 69.6227C57.8053 71.1071 59.3397 73.9961 59.3397 78.4195C59.3397 84.7708 59.2878 89.8975 59.2878 91.4598C59.2878 92.7345 60.1469 94.1929 62.5404 93.7494C81.4143 87.452 95 69.6747 95 48.6708C95 22.4345 73.7363 1.1708 47.5 1.1708Z" fill="#7DE2D1"/>
<path d="M17.9851 69.363C17.8812 69.5968 17.5175 69.6747 17.1779 69.5189C16.8402 69.363 16.6306 69.0513 16.7623 68.8156C16.8662 68.5818 17.2299 68.5039 17.5694 68.6598C17.9071 68.8156 18.1149 69.1292 17.9851 69.363Z" fill="#7DE2D1"/>
<path d="M19.911 71.5228C19.6772 71.7306 19.2338 71.6267 18.948 71.3149C18.6363 70.9772 18.5844 70.5338 18.8182 70.326C19.052 70.1182 19.4694 70.2221 19.7812 70.5338C20.0929 70.8715 20.1448 71.3149 19.911 71.5228Z" fill="#7DE2D1"/>
<path d="M21.7851 74.2559C21.4993 74.4637 21.0299 74.2818 20.7182 73.8402C20.4324 73.4246 20.4324 72.9032 20.7182 72.6954C21.0039 72.4876 21.4733 72.6694 21.7851 73.0851C22.0968 73.5267 22.0968 74.048 21.7851 74.2559Z" fill="#7DE2D1"/>
<path d="M24.3623 76.8851C24.1025 77.1708 23.5552 77.0929 23.1395 76.7032C22.7239 76.3136 22.6182 75.7662 22.8798 75.4805C23.1414 75.1947 23.7129 75.2727 24.1025 75.6623C24.5182 76.0779 24.6221 76.6234 24.3623 76.8851Z" fill="#7DE2D1"/>
<path d="M27.9007 78.4195C27.7968 78.7832 27.2494 78.9669 26.7039 78.8092C26.1565 78.6533 25.8188 78.2099 25.9228 77.8462C26.0267 77.4825 26.574 77.2988 27.1195 77.4565C27.6409 77.6124 28.0046 78.0559 27.9007 78.4195Z" fill="#7DE2D1"/>
<path d="M31.7786 78.7071C31.8046 79.0968 31.337 79.4363 30.7637 79.4363C30.1903 79.4623 29.7487 79.1246 29.7228 78.7331C29.7228 78.3435 30.1644 78.0039 30.7377 78.0039C31.311 78.0039 31.7786 78.3156 31.7786 78.7071Z" fill="#7DE2D1"/>
<path d="M35.3968 78.1078C35.4747 78.4975 35.0851 78.889 34.5117 78.9929C33.9644 79.0968 33.4448 78.863 33.3929 78.4715C33.3149 78.0818 33.7306 77.6903 34.2779 77.5864C34.8253 77.4825 35.3188 77.7182 35.3968 78.1078Z" fill="#7DE2D1"/>
</svg>
