<svg width="95" height="95" viewBox="0 0 95 95" fill="none" xmlns="http://www.w3.org/2000/svg">
<path d="M6.4793 83.125H21.5847V46.4368L0 30.2293V76.6457C0 80.2379 2.90752 83.125 6.4793 83.125Z" fill="#7DE2D1"/>
<path d="M73.4153 83.125H88.5207C92.0925 83.125 95 80.2175 95 76.6457V30.2293L73.4153 46.4164V83.125Z" fill="#7DE2D1"/>
<path d="M73.4153 18.3543V46.4164L95 30.2293V21.5847C95 13.5857 85.8618 9.00645 79.4586 13.814L73.4153 18.3543Z" fill="#71C8B9"/>
<path d="M21.5847 46.4368V18.3543L47.5 37.7922L73.4153 18.3543V46.4368L47.5 65.8543L21.5847 46.4368Z" fill="#7DE2D1"/>
<path d="M0 21.6032V30.2479L21.5847 46.435V18.3543L15.5414 13.8325C9.13818 9.025 0 13.6043 0 21.6032Z" fill="#ACEFE4"/>
</svg>
