<svg width="95" height="95" viewBox="0 0 95 95" fill="none" xmlns="http://www.w3.org/2000/svg">
<g clip-path="url(#clip0_14_2)">
<path d="M83.4194 0H11.5806C5.18479 0 0 5.18479 0 11.5806V83.4194C0 89.8152 5.18479 95 11.5806 95H83.4194C89.8152 95 95 89.8152 95 83.4194V11.5806C95 5.18479 89.8152 0 83.4194 0ZM41.325 74.0454C41.325 77.0161 38.9168 79.424 35.9464 79.424H17.7288C14.7582 79.424 12.3502 77.0158 12.3502 74.0454V18.5361C12.3502 15.5654 14.7584 13.1575 17.7288 13.1575H35.9464C38.9171 13.1575 41.325 15.5657 41.325 18.5361V74.0454ZM82.65 50.1656C82.65 53.1363 80.2418 55.5442 77.2714 55.5442H59.0538C56.0832 55.5442 53.6752 53.136 53.6752 50.1656V18.5361C53.6752 15.5654 56.0834 13.1575 59.0538 13.1575H77.2714C80.2421 13.1575 82.65 15.5657 82.65 18.5361V50.1656Z" fill="#7DE2D1"/>
</g>
<defs>
<clipPath id="clip0_14_2">
<rect width="95" height="95" fill="white"/>
</clipPath>
</defs>
</svg>
