<svg width="94" height="95" viewBox="0 0 94 95" fill="none" xmlns="http://www.w3.org/2000/svg">
<path d="M91.9482 24.6347C91.4074 22.6198 90.3544 20.783 88.8937 19.3067C87.433 17.8305 85.6155 16.7663 83.6218 16.2198C76.3221 14.2055 46.9412 14.2055 46.9412 14.2055C46.9412 14.2055 17.5589 14.2648 10.2578 16.2791C8.26406 16.8257 6.44658 17.8899 4.98589 19.3661C3.52521 20.8423 2.47217 22.6792 1.93141 24.6941C0 32.0729 0 47.5 0 47.5C0 47.5 0 62.9271 1.99162 70.3653C2.53239 72.3802 3.58543 74.217 5.04611 75.6932C6.5068 77.1695 8.32428 78.2337 10.318 78.7802C17.6177 80.7945 47 80.7945 47 80.7945C47 80.7945 76.3823 80.7945 83.6835 78.7817C85.6772 78.2352 87.4947 77.171 88.9554 75.6947C90.416 74.2185 91.4691 72.3817 92.0098 70.3668C94 62.988 94 47.5 94 47.5C94 47.5 93.9413 32.0729 91.9482 24.6347Z" fill="#7DE2D1"/>
<path d="M37.5883 61.7678L61.9622 47.5L37.5868 33.2322L37.5883 61.7678Z" fill="#FFFAFB"/>
</svg>
